<mxfile host="Electron" modified="2024-03-23T01:02:09.327Z" agent="Mozilla/5.0 (Windows NT 10.0; Win64; x64) AppleWebKit/537.36 (KHTML, like Gecko) draw.io/22.1.2 Chrome/114.0.5735.289 Electron/25.9.4 Safari/537.36" etag="u77C2YhCSkluDZMXZhrG" version="22.1.2" type="device" pages="2">
  <diagram name="Flujo de eventos" id="SJ2G5iUW-pj1c54XmidY">
    <mxGraphModel dx="1577" dy="726" grid="1" gridSize="10" guides="1" tooltips="1" connect="1" arrows="1" fold="1" page="1" pageScale="1" pageWidth="827" pageHeight="1169" math="0" shadow="0">
      <root>
        <mxCell id="0" />
        <mxCell id="1" parent="0" />
        <mxCell id="LkubVOq18b3pzLNHqv5a-4" value="" style="group" vertex="1" connectable="0" parent="1">
          <mxGeometry x="60" y="40" width="110" height="630" as="geometry" />
        </mxCell>
        <mxCell id="LkubVOq18b3pzLNHqv5a-3" style="edgeStyle=orthogonalEdgeStyle;rounded=0;orthogonalLoop=1;jettySize=auto;html=1;endArrow=none;endFill=0;dashed=1;" edge="1" parent="LkubVOq18b3pzLNHqv5a-4" source="LkubVOq18b3pzLNHqv5a-24">
          <mxGeometry relative="1" as="geometry">
            <mxPoint x="40" y="630" as="targetPoint" />
          </mxGeometry>
        </mxCell>
        <mxCell id="LkubVOq18b3pzLNHqv5a-2" value="&lt;font color=&quot;#ffffff&quot; style=&quot;font-size: 36px;&quot;&gt;1&lt;/font&gt;" style="ellipse;whiteSpace=wrap;html=1;aspect=fixed;fillColor=#000000;" vertex="1" parent="LkubVOq18b3pzLNHqv5a-4">
          <mxGeometry width="80" height="80" as="geometry" />
        </mxCell>
        <mxCell id="LkubVOq18b3pzLNHqv5a-25" value="Tipo Sede" style="rounded=0;whiteSpace=wrap;html=1;fillColor=#dae8fc;strokeColor=#6c8ebf;" vertex="1" parent="LkubVOq18b3pzLNHqv5a-4">
          <mxGeometry x="-20" y="110.95890410958904" width="120" height="73.97260273972603" as="geometry" />
        </mxCell>
        <mxCell id="LkubVOq18b3pzLNHqv5a-31" value="" style="edgeStyle=orthogonalEdgeStyle;rounded=0;orthogonalLoop=1;jettySize=auto;html=1;endArrow=none;endFill=0;dashed=1;" edge="1" parent="LkubVOq18b3pzLNHqv5a-4" source="LkubVOq18b3pzLNHqv5a-2" target="LkubVOq18b3pzLNHqv5a-25">
          <mxGeometry relative="1" as="geometry">
            <mxPoint x="100" y="679.3150684931508" as="targetPoint" />
            <mxPoint x="100" y="147.94520547945206" as="sourcePoint" />
          </mxGeometry>
        </mxCell>
        <mxCell id="LkubVOq18b3pzLNHqv5a-24" value="Pais" style="rounded=0;whiteSpace=wrap;html=1;fillColor=#dae8fc;strokeColor=#6c8ebf;" vertex="1" parent="LkubVOq18b3pzLNHqv5a-4">
          <mxGeometry x="-20" y="295.8904109589041" width="120" height="73.97260273972603" as="geometry" />
        </mxCell>
        <mxCell id="LkubVOq18b3pzLNHqv5a-32" value="" style="edgeStyle=orthogonalEdgeStyle;rounded=0;orthogonalLoop=1;jettySize=auto;html=1;endArrow=none;endFill=0;dashed=1;" edge="1" parent="LkubVOq18b3pzLNHqv5a-4" source="LkubVOq18b3pzLNHqv5a-25" target="LkubVOq18b3pzLNHqv5a-24">
          <mxGeometry relative="1" as="geometry">
            <mxPoint x="100" y="679.3150684931508" as="targetPoint" />
            <mxPoint x="100" y="234.24657534246577" as="sourcePoint" />
          </mxGeometry>
        </mxCell>
        <mxCell id="LkubVOq18b3pzLNHqv5a-26" value="Tipo Identificacion" style="rounded=0;whiteSpace=wrap;html=1;fillColor=#dae8fc;strokeColor=#6c8ebf;" vertex="1" parent="LkubVOq18b3pzLNHqv5a-4">
          <mxGeometry x="-20" y="382.1917808219178" width="120" height="73.97260273972603" as="geometry" />
        </mxCell>
        <mxCell id="LkubVOq18b3pzLNHqv5a-27" value="Tipo Institucion" style="rounded=0;whiteSpace=wrap;html=1;fillColor=#dae8fc;strokeColor=#6c8ebf;" vertex="1" parent="LkubVOq18b3pzLNHqv5a-4">
          <mxGeometry x="-20" y="468.49315068493155" width="120" height="73.97260273972603" as="geometry" />
        </mxCell>
        <mxCell id="LkubVOq18b3pzLNHqv5a-28" value="Naturaleza Institucion" style="rounded=0;whiteSpace=wrap;html=1;fillColor=#dae8fc;strokeColor=#6c8ebf;" vertex="1" parent="LkubVOq18b3pzLNHqv5a-4">
          <mxGeometry x="-20" y="556.027397260274" width="130" height="73.97260273972603" as="geometry" />
        </mxCell>
        <mxCell id="LkubVOq18b3pzLNHqv5a-29" value="TipoUbicacion" style="rounded=0;whiteSpace=wrap;html=1;fillColor=#dae8fc;strokeColor=#6c8ebf;" vertex="1" parent="LkubVOq18b3pzLNHqv5a-4">
          <mxGeometry x="-20" y="199.99904109589042" width="120" height="73.97260273972603" as="geometry" />
        </mxCell>
        <mxCell id="LkubVOq18b3pzLNHqv5a-5" value="" style="group" vertex="1" connectable="0" parent="1">
          <mxGeometry x="350" y="40" width="110" height="650" as="geometry" />
        </mxCell>
        <mxCell id="LkubVOq18b3pzLNHqv5a-6" style="edgeStyle=orthogonalEdgeStyle;rounded=0;orthogonalLoop=1;jettySize=auto;html=1;endArrow=none;endFill=0;dashed=1;" edge="1" parent="LkubVOq18b3pzLNHqv5a-5" source="LkubVOq18b3pzLNHqv5a-41">
          <mxGeometry relative="1" as="geometry">
            <mxPoint x="40" y="650" as="targetPoint" />
          </mxGeometry>
        </mxCell>
        <mxCell id="LkubVOq18b3pzLNHqv5a-7" value="&lt;font color=&quot;#ffffff&quot; style=&quot;font-size: 36px;&quot;&gt;2&lt;/font&gt;" style="ellipse;whiteSpace=wrap;html=1;aspect=fixed;fillColor=#000000;" vertex="1" parent="LkubVOq18b3pzLNHqv5a-5">
          <mxGeometry width="80" height="80" as="geometry" />
        </mxCell>
        <mxCell id="LkubVOq18b3pzLNHqv5a-41" value="Institucion" style="rounded=0;whiteSpace=wrap;html=1;fillColor=#bac8d3;strokeColor=#23445d;" vertex="1" parent="LkubVOq18b3pzLNHqv5a-5">
          <mxGeometry x="-20" y="389.8459491193738" width="120" height="76.32093933463797" as="geometry" />
        </mxCell>
        <mxCell id="LkubVOq18b3pzLNHqv5a-46" value="" style="edgeStyle=orthogonalEdgeStyle;rounded=0;orthogonalLoop=1;jettySize=auto;html=1;endArrow=none;endFill=0;dashed=1;" edge="1" parent="LkubVOq18b3pzLNHqv5a-5" source="LkubVOq18b3pzLNHqv5a-7" target="LkubVOq18b3pzLNHqv5a-41">
          <mxGeometry relative="1" as="geometry">
            <mxPoint x="390" y="700.880626223092" as="targetPoint" />
            <mxPoint x="390" y="152.64187866927594" as="sourcePoint" />
          </mxGeometry>
        </mxCell>
        <mxCell id="LkubVOq18b3pzLNHqv5a-43" value="Departamento" style="rounded=0;whiteSpace=wrap;html=1;fillColor=#bac8d3;strokeColor=#23445d;" vertex="1" parent="LkubVOq18b3pzLNHqv5a-5">
          <mxGeometry x="-20" y="295.8937573385519" width="120" height="76.32093933463797" as="geometry" />
        </mxCell>
        <mxCell id="LkubVOq18b3pzLNHqv5a-17" value="" style="group" vertex="1" connectable="0" parent="1">
          <mxGeometry x="850" y="50" width="110" height="1130" as="geometry" />
        </mxCell>
        <mxCell id="LkubVOq18b3pzLNHqv5a-23" value="" style="group" vertex="1" connectable="0" parent="LkubVOq18b3pzLNHqv5a-17">
          <mxGeometry width="110" height="1130" as="geometry" />
        </mxCell>
        <mxCell id="LkubVOq18b3pzLNHqv5a-18" style="edgeStyle=orthogonalEdgeStyle;rounded=0;orthogonalLoop=1;jettySize=auto;html=1;endArrow=none;endFill=0;dashed=1;" edge="1" parent="LkubVOq18b3pzLNHqv5a-23" source="LkubVOq18b3pzLNHqv5a-53">
          <mxGeometry relative="1" as="geometry">
            <mxPoint x="40" y="607.821052631579" as="targetPoint" />
          </mxGeometry>
        </mxCell>
        <mxCell id="LkubVOq18b3pzLNHqv5a-19" value="&lt;font color=&quot;#ffffff&quot; style=&quot;font-size: 36px;&quot;&gt;4&lt;/font&gt;" style="ellipse;whiteSpace=wrap;html=1;aspect=fixed;fillColor=#000000;" vertex="1" parent="LkubVOq18b3pzLNHqv5a-23">
          <mxGeometry width="80" height="80" as="geometry" />
        </mxCell>
        <mxCell id="LkubVOq18b3pzLNHqv5a-53" value="Sede" style="rounded=0;whiteSpace=wrap;html=1;fillColor=#b1ddf0;strokeColor=#10739e;" vertex="1" parent="LkubVOq18b3pzLNHqv5a-23">
          <mxGeometry x="-20" y="374.79473684210535" width="120" height="71.36842105263159" as="geometry" />
        </mxCell>
        <mxCell id="LkubVOq18b3pzLNHqv5a-54" value="" style="edgeStyle=orthogonalEdgeStyle;rounded=0;orthogonalLoop=1;jettySize=auto;html=1;endArrow=none;endFill=0;dashed=1;" edge="1" parent="LkubVOq18b3pzLNHqv5a-23" source="LkubVOq18b3pzLNHqv5a-19" target="LkubVOq18b3pzLNHqv5a-53">
          <mxGeometry relative="1" as="geometry">
            <mxPoint x="890" y="667.2947368421053" as="targetPoint" />
            <mxPoint x="890" y="154.63157894736844" as="sourcePoint" />
          </mxGeometry>
        </mxCell>
        <mxCell id="LkubVOq18b3pzLNHqv5a-20" value="" style="group" vertex="1" connectable="0" parent="1">
          <mxGeometry x="1150" y="40" width="100" height="640" as="geometry" />
        </mxCell>
        <mxCell id="LkubVOq18b3pzLNHqv5a-21" style="edgeStyle=orthogonalEdgeStyle;rounded=0;orthogonalLoop=1;jettySize=auto;html=1;endArrow=none;endFill=0;dashed=1;" edge="1" parent="LkubVOq18b3pzLNHqv5a-20" source="LkubVOq18b3pzLNHqv5a-22">
          <mxGeometry relative="1" as="geometry">
            <mxPoint x="40" y="640" as="targetPoint" />
          </mxGeometry>
        </mxCell>
        <mxCell id="LkubVOq18b3pzLNHqv5a-22" value="&lt;font color=&quot;#ffffff&quot; style=&quot;font-size: 36px;&quot;&gt;5&lt;/font&gt;" style="ellipse;whiteSpace=wrap;html=1;aspect=fixed;fillColor=#000000;" vertex="1" parent="LkubVOq18b3pzLNHqv5a-20">
          <mxGeometry width="80" height="80" as="geometry" />
        </mxCell>
        <mxCell id="LkubVOq18b3pzLNHqv5a-55" value="Ubicacion" style="rounded=0;whiteSpace=wrap;html=1;fillColor=#fff2cc;strokeColor=#d6b656;gradientColor=#ffd966;" vertex="1" parent="LkubVOq18b3pzLNHqv5a-20">
          <mxGeometry x="-10" y="310.00277886497065" width="120" height="75.14677103718199" as="geometry" />
        </mxCell>
        <mxCell id="LkubVOq18b3pzLNHqv5a-8" value="" style="group" vertex="1" connectable="0" parent="1">
          <mxGeometry x="600" y="40" width="100" height="650" as="geometry" />
        </mxCell>
        <mxCell id="LkubVOq18b3pzLNHqv5a-9" style="edgeStyle=orthogonalEdgeStyle;rounded=0;orthogonalLoop=1;jettySize=auto;html=1;endArrow=none;endFill=0;dashed=1;" edge="1" parent="LkubVOq18b3pzLNHqv5a-8" source="LkubVOq18b3pzLNHqv5a-52">
          <mxGeometry relative="1" as="geometry">
            <mxPoint x="40" y="650" as="targetPoint" />
          </mxGeometry>
        </mxCell>
        <mxCell id="LkubVOq18b3pzLNHqv5a-10" value="&lt;font color=&quot;#ffffff&quot; style=&quot;font-size: 36px;&quot;&gt;3&lt;/font&gt;" style="ellipse;whiteSpace=wrap;html=1;aspect=fixed;fillColor=#000000;" vertex="1" parent="LkubVOq18b3pzLNHqv5a-8">
          <mxGeometry width="80" height="80" as="geometry" />
        </mxCell>
        <mxCell id="LkubVOq18b3pzLNHqv5a-57" value="" style="edgeStyle=orthogonalEdgeStyle;rounded=0;orthogonalLoop=1;jettySize=auto;html=1;endArrow=none;endFill=0;dashed=1;" edge="1" parent="LkubVOq18b3pzLNHqv5a-8" source="LkubVOq18b3pzLNHqv5a-10" target="LkubVOq18b3pzLNHqv5a-52">
          <mxGeometry relative="1" as="geometry">
            <mxPoint x="640" y="700.880626223092" as="targetPoint" />
            <mxPoint x="640" y="152.64187866927594" as="sourcePoint" />
          </mxGeometry>
        </mxCell>
        <mxCell id="LkubVOq18b3pzLNHqv5a-52" value="Ciudad" style="rounded=0;whiteSpace=wrap;html=1;fillColor=#fad7ac;strokeColor=#b46504;" vertex="1" parent="LkubVOq18b3pzLNHqv5a-8">
          <mxGeometry x="-20" y="295.28810176125245" width="120" height="76.32093933463797" as="geometry" />
        </mxCell>
        <mxCell id="LkubVOq18b3pzLNHqv5a-47" style="edgeStyle=orthogonalEdgeStyle;rounded=0;orthogonalLoop=1;jettySize=auto;html=1;" edge="1" parent="1" source="LkubVOq18b3pzLNHqv5a-24" target="LkubVOq18b3pzLNHqv5a-43">
          <mxGeometry relative="1" as="geometry" />
        </mxCell>
        <mxCell id="LkubVOq18b3pzLNHqv5a-48" style="edgeStyle=orthogonalEdgeStyle;rounded=0;orthogonalLoop=1;jettySize=auto;html=1;" edge="1" parent="1" source="LkubVOq18b3pzLNHqv5a-26" target="LkubVOq18b3pzLNHqv5a-41">
          <mxGeometry relative="1" as="geometry">
            <Array as="points">
              <mxPoint x="190" y="450" />
              <mxPoint x="190" y="450" />
            </Array>
          </mxGeometry>
        </mxCell>
        <mxCell id="LkubVOq18b3pzLNHqv5a-49" style="edgeStyle=orthogonalEdgeStyle;rounded=0;orthogonalLoop=1;jettySize=auto;html=1;" edge="1" parent="1" source="LkubVOq18b3pzLNHqv5a-27" target="LkubVOq18b3pzLNHqv5a-41">
          <mxGeometry relative="1" as="geometry">
            <Array as="points">
              <mxPoint x="240" y="546" />
              <mxPoint x="240" y="450" />
            </Array>
          </mxGeometry>
        </mxCell>
        <mxCell id="LkubVOq18b3pzLNHqv5a-50" style="edgeStyle=orthogonalEdgeStyle;rounded=0;orthogonalLoop=1;jettySize=auto;html=1;" edge="1" parent="1" source="LkubVOq18b3pzLNHqv5a-28" target="LkubVOq18b3pzLNHqv5a-41">
          <mxGeometry relative="1" as="geometry">
            <Array as="points">
              <mxPoint x="240" y="640" />
              <mxPoint x="240" y="450" />
            </Array>
          </mxGeometry>
        </mxCell>
        <mxCell id="LkubVOq18b3pzLNHqv5a-56" style="edgeStyle=orthogonalEdgeStyle;rounded=0;orthogonalLoop=1;jettySize=auto;html=1;" edge="1" parent="1" source="LkubVOq18b3pzLNHqv5a-43" target="LkubVOq18b3pzLNHqv5a-52">
          <mxGeometry relative="1" as="geometry" />
        </mxCell>
        <mxCell id="LkubVOq18b3pzLNHqv5a-58" style="edgeStyle=orthogonalEdgeStyle;rounded=0;orthogonalLoop=1;jettySize=auto;html=1;" edge="1" parent="1" source="LkubVOq18b3pzLNHqv5a-41" target="LkubVOq18b3pzLNHqv5a-53">
          <mxGeometry relative="1" as="geometry">
            <Array as="points">
              <mxPoint x="550" y="470" />
              <mxPoint x="550" y="470" />
            </Array>
          </mxGeometry>
        </mxCell>
        <mxCell id="LkubVOq18b3pzLNHqv5a-59" style="edgeStyle=orthogonalEdgeStyle;rounded=0;orthogonalLoop=1;jettySize=auto;html=1;entryX=0;entryY=0.5;entryDx=0;entryDy=0;" edge="1" parent="1" source="LkubVOq18b3pzLNHqv5a-52" target="LkubVOq18b3pzLNHqv5a-53">
          <mxGeometry relative="1" as="geometry">
            <Array as="points">
              <mxPoint x="760" y="373" />
              <mxPoint x="760" y="470" />
            </Array>
          </mxGeometry>
        </mxCell>
        <mxCell id="LkubVOq18b3pzLNHqv5a-60" style="edgeStyle=orthogonalEdgeStyle;rounded=0;orthogonalLoop=1;jettySize=auto;html=1;entryX=0;entryY=0.5;entryDx=0;entryDy=0;" edge="1" parent="1" source="LkubVOq18b3pzLNHqv5a-53" target="LkubVOq18b3pzLNHqv5a-55">
          <mxGeometry relative="1" as="geometry">
            <Array as="points">
              <mxPoint x="1040" y="466" />
              <mxPoint x="1040" y="390" />
            </Array>
          </mxGeometry>
        </mxCell>
        <mxCell id="LkubVOq18b3pzLNHqv5a-61" style="edgeStyle=orthogonalEdgeStyle;rounded=0;orthogonalLoop=1;jettySize=auto;html=1;" edge="1" parent="1" source="LkubVOq18b3pzLNHqv5a-25" target="LkubVOq18b3pzLNHqv5a-53">
          <mxGeometry relative="1" as="geometry">
            <Array as="points">
              <mxPoint x="760" y="188" />
              <mxPoint x="760" y="470" />
            </Array>
          </mxGeometry>
        </mxCell>
        <mxCell id="LkubVOq18b3pzLNHqv5a-62" style="edgeStyle=orthogonalEdgeStyle;rounded=0;orthogonalLoop=1;jettySize=auto;html=1;" edge="1" parent="1" source="LkubVOq18b3pzLNHqv5a-29" target="LkubVOq18b3pzLNHqv5a-55">
          <mxGeometry relative="1" as="geometry">
            <Array as="points">
              <mxPoint x="1040" y="277" />
              <mxPoint x="1040" y="390" />
            </Array>
          </mxGeometry>
        </mxCell>
      </root>
    </mxGraphModel>
  </diagram>
  <diagram id="83JUgl3iqkevCZrB8QbA" name="2. Event Storming">
    <mxGraphModel dx="2398" dy="2093" grid="1" gridSize="10" guides="1" tooltips="1" connect="1" arrows="1" fold="1" page="1" pageScale="1" pageWidth="827" pageHeight="1169" math="0" shadow="0">
      <root>
        <mxCell id="0" />
        <mxCell id="1" parent="0" />
        <mxCell id="Wqq2mzDdI7eVIH88xmwz-1" value="" style="rounded=1;whiteSpace=wrap;html=1;dashed=1;" vertex="1" parent="1">
          <mxGeometry x="-10" y="120" width="1530" height="1000" as="geometry" />
        </mxCell>
        <mxCell id="Wqq2mzDdI7eVIH88xmwz-2" value="&lt;font style=&quot;font-size: 36px;&quot;&gt;País&lt;/font&gt;" style="text;html=1;align=center;verticalAlign=middle;resizable=0;points=[];autosize=1;strokeColor=none;fillColor=none;fontStyle=1" vertex="1" parent="1">
          <mxGeometry x="665" y="30" width="100" height="60" as="geometry" />
        </mxCell>
        <mxCell id="Wqq2mzDdI7eVIH88xmwz-3" value="Actor" style="whiteSpace=wrap;html=1;aspect=fixed;fillColor=#FCFCAA;" vertex="1" parent="1">
          <mxGeometry x="40" y="-230" width="80" height="80" as="geometry" />
        </mxCell>
        <mxCell id="Wqq2mzDdI7eVIH88xmwz-4" value="Comandos" style="whiteSpace=wrap;html=1;aspect=fixed;fillColor=#BDD7EE;" vertex="1" parent="1">
          <mxGeometry x="150" y="-230" width="80" height="80" as="geometry" />
        </mxCell>
        <mxCell id="Wqq2mzDdI7eVIH88xmwz-5" value="Enttity" style="whiteSpace=wrap;html=1;aspect=fixed;fillColor=#FFFF00;" vertex="1" parent="1">
          <mxGeometry x="260" y="-230" width="80" height="80" as="geometry" />
        </mxCell>
        <mxCell id="Wqq2mzDdI7eVIH88xmwz-6" value="Real&amp;nbsp; Model" style="whiteSpace=wrap;html=1;aspect=fixed;fillColor=#92D050;" vertex="1" parent="1">
          <mxGeometry x="380" y="-230" width="80" height="80" as="geometry" />
        </mxCell>
        <mxCell id="Wqq2mzDdI7eVIH88xmwz-7" value="Bussines Rules" style="whiteSpace=wrap;html=1;aspect=fixed;fillColor=#CC99FF;" vertex="1" parent="1">
          <mxGeometry x="490" y="-230" width="80" height="80" as="geometry" />
        </mxCell>
        <mxCell id="Wqq2mzDdI7eVIH88xmwz-8" value="External System" style="whiteSpace=wrap;html=1;aspect=fixed;fillColor=#FDD3FA;" vertex="1" parent="1">
          <mxGeometry x="590" y="-230" width="80" height="80" as="geometry" />
        </mxCell>
        <mxCell id="Wqq2mzDdI7eVIH88xmwz-9" value="Event&lt;br&gt;" style="whiteSpace=wrap;html=1;aspect=fixed;fillColor=#FFC000;" vertex="1" parent="1">
          <mxGeometry x="790" y="-230" width="80" height="80" as="geometry" />
        </mxCell>
        <mxCell id="Wqq2mzDdI7eVIH88xmwz-10" value="Hostpot" style="whiteSpace=wrap;html=1;aspect=fixed;fillColor=#FA90B1;" vertex="1" parent="1">
          <mxGeometry x="890" y="-230" width="80" height="80" as="geometry" />
        </mxCell>
        <mxCell id="Wqq2mzDdI7eVIH88xmwz-12" value="Eventos Previos" style="whiteSpace=wrap;html=1;aspect=fixed;fillColor=#D6DCE4;" vertex="1" parent="1">
          <mxGeometry x="700" y="-230" width="80" height="80" as="geometry" />
        </mxCell>
        <mxCell id="Wqq2mzDdI7eVIH88xmwz-44" style="edgeStyle=orthogonalEdgeStyle;rounded=0;orthogonalLoop=1;jettySize=auto;html=1;curved=1;exitX=0.75;exitY=1;exitDx=0;exitDy=0;" edge="1" parent="1" source="Wqq2mzDdI7eVIH88xmwz-13" target="Wqq2mzDdI7eVIH88xmwz-28">
          <mxGeometry relative="1" as="geometry">
            <Array as="points">
              <mxPoint x="680" y="360" />
              <mxPoint x="680" y="650" />
              <mxPoint x="490" y="650" />
            </Array>
          </mxGeometry>
        </mxCell>
        <mxCell id="Wqq2mzDdI7eVIH88xmwz-59" style="edgeStyle=orthogonalEdgeStyle;rounded=0;orthogonalLoop=1;jettySize=auto;html=1;curved=1;" edge="1" parent="1" source="Wqq2mzDdI7eVIH88xmwz-90" target="Wqq2mzDdI7eVIH88xmwz-48">
          <mxGeometry relative="1" as="geometry">
            <Array as="points">
              <mxPoint x="650" y="170" />
              <mxPoint x="1060" y="170" />
            </Array>
          </mxGeometry>
        </mxCell>
        <mxCell id="Wqq2mzDdI7eVIH88xmwz-86" style="edgeStyle=orthogonalEdgeStyle;rounded=0;orthogonalLoop=1;jettySize=auto;html=1;curved=1;" edge="1" parent="1" source="Wqq2mzDdI7eVIH88xmwz-13" target="Wqq2mzDdI7eVIH88xmwz-71">
          <mxGeometry relative="1" as="geometry">
            <Array as="points">
              <mxPoint x="780" y="320" />
              <mxPoint x="780" y="780" />
            </Array>
          </mxGeometry>
        </mxCell>
        <mxCell id="Wqq2mzDdI7eVIH88xmwz-13" value="País Creado" style="whiteSpace=wrap;html=1;aspect=fixed;fillColor=#FFC000;" vertex="1" parent="1">
          <mxGeometry x="610" y="280" width="80" height="80" as="geometry" />
        </mxCell>
        <mxCell id="Wqq2mzDdI7eVIH88xmwz-14" value="País" style="whiteSpace=wrap;html=1;aspect=fixed;fillColor=#FFFF00;" vertex="1" parent="1">
          <mxGeometry x="530" y="280" width="80" height="80" as="geometry" />
        </mxCell>
        <mxCell id="Wqq2mzDdI7eVIH88xmwz-15" value="Crear país" style="whiteSpace=wrap;html=1;aspect=fixed;fillColor=#BDD7EE;" vertex="1" parent="1">
          <mxGeometry x="450" y="280" width="80" height="80" as="geometry" />
        </mxCell>
        <mxCell id="Wqq2mzDdI7eVIH88xmwz-16" value="Administrador General" style="whiteSpace=wrap;html=1;aspect=fixed;fillColor=#FCFCAA;" vertex="1" parent="1">
          <mxGeometry x="370" y="310" width="80" height="80" as="geometry" />
        </mxCell>
        <mxCell id="Wqq2mzDdI7eVIH88xmwz-17" value="Pol-País-001: No debe existir otro pais con el mismo nombre" style="whiteSpace=wrap;html=1;aspect=fixed;fillColor=#CC99FF;" vertex="1" parent="1">
          <mxGeometry x="525" y="360" width="120" height="120" as="geometry" />
        </mxCell>
        <mxCell id="Wqq2mzDdI7eVIH88xmwz-18" value="Pol-País-002: Los datos del nuevo país deben ser valido a nivel de tipo de dato, longitud, obligatoriedad, formato, rango" style="whiteSpace=wrap;html=1;aspect=fixed;fillColor=#CC99FF;" vertex="1" parent="1">
          <mxGeometry x="525" y="480" width="120" height="120" as="geometry" />
        </mxCell>
        <mxCell id="Wqq2mzDdI7eVIH88xmwz-45" style="edgeStyle=orthogonalEdgeStyle;rounded=0;orthogonalLoop=1;jettySize=auto;html=1;curved=1;" edge="1" parent="1" source="Wqq2mzDdI7eVIH88xmwz-26" target="Wqq2mzDdI7eVIH88xmwz-15">
          <mxGeometry relative="1" as="geometry">
            <Array as="points">
              <mxPoint x="650" y="660" />
              <mxPoint x="490" y="660" />
            </Array>
          </mxGeometry>
        </mxCell>
        <mxCell id="Wqq2mzDdI7eVIH88xmwz-58" style="edgeStyle=orthogonalEdgeStyle;rounded=0;orthogonalLoop=1;jettySize=auto;html=1;curved=1;" edge="1" parent="1" source="Wqq2mzDdI7eVIH88xmwz-26" target="Wqq2mzDdI7eVIH88xmwz-48">
          <mxGeometry relative="1" as="geometry">
            <Array as="points">
              <mxPoint x="670" y="410" />
              <mxPoint x="1050" y="410" />
            </Array>
          </mxGeometry>
        </mxCell>
        <mxCell id="Wqq2mzDdI7eVIH88xmwz-83" style="edgeStyle=orthogonalEdgeStyle;rounded=0;orthogonalLoop=1;jettySize=auto;html=1;curved=1;" edge="1" parent="1" source="Wqq2mzDdI7eVIH88xmwz-26" target="Wqq2mzDdI7eVIH88xmwz-71">
          <mxGeometry relative="1" as="geometry">
            <Array as="points">
              <mxPoint x="650" y="690" />
              <mxPoint x="1080" y="690" />
            </Array>
          </mxGeometry>
        </mxCell>
        <mxCell id="Wqq2mzDdI7eVIH88xmwz-26" value="Países consultados" style="whiteSpace=wrap;html=1;aspect=fixed;fillColor=#FFC000;" vertex="1" parent="1">
          <mxGeometry x="610" y="720" width="80" height="80" as="geometry" />
        </mxCell>
        <mxCell id="Wqq2mzDdI7eVIH88xmwz-27" value="País" style="whiteSpace=wrap;html=1;aspect=fixed;fillColor=#FFFF00;" vertex="1" parent="1">
          <mxGeometry x="530" y="720" width="80" height="80" as="geometry" />
        </mxCell>
        <mxCell id="Wqq2mzDdI7eVIH88xmwz-28" value="Consultar países" style="whiteSpace=wrap;html=1;aspect=fixed;fillColor=#BDD7EE;" vertex="1" parent="1">
          <mxGeometry x="450" y="720" width="80" height="80" as="geometry" />
        </mxCell>
        <mxCell id="Wqq2mzDdI7eVIH88xmwz-35" style="edgeStyle=orthogonalEdgeStyle;rounded=0;orthogonalLoop=1;jettySize=auto;html=1;curved=1;" edge="1" parent="1" source="Wqq2mzDdI7eVIH88xmwz-29" target="Wqq2mzDdI7eVIH88xmwz-28">
          <mxGeometry relative="1" as="geometry" />
        </mxCell>
        <mxCell id="Wqq2mzDdI7eVIH88xmwz-29" value="Administrador General" style="whiteSpace=wrap;html=1;aspect=fixed;fillColor=#FCFCAA;" vertex="1" parent="1">
          <mxGeometry x="280" y="720" width="80" height="80" as="geometry" />
        </mxCell>
        <mxCell id="Wqq2mzDdI7eVIH88xmwz-30" value="Pol-País-003: Si se envía parametros de consulta, deben ser validos a nivel de tipo de datos, longitud, obligatoriedad, formato, rango" style="whiteSpace=wrap;html=1;aspect=fixed;fillColor=#CC99FF;" vertex="1" parent="1">
          <mxGeometry x="525" y="800" width="120" height="120" as="geometry" />
        </mxCell>
        <mxCell id="Wqq2mzDdI7eVIH88xmwz-36" style="edgeStyle=orthogonalEdgeStyle;rounded=0;orthogonalLoop=1;jettySize=auto;html=1;entryX=0;entryY=0.5;entryDx=0;entryDy=0;curved=1;" edge="1" parent="1" source="Wqq2mzDdI7eVIH88xmwz-34" target="Wqq2mzDdI7eVIH88xmwz-28">
          <mxGeometry relative="1" as="geometry" />
        </mxCell>
        <mxCell id="Wqq2mzDdI7eVIH88xmwz-34" value="Administrador Institución" style="whiteSpace=wrap;html=1;aspect=fixed;fillColor=#FCFCAA;" vertex="1" parent="1">
          <mxGeometry x="280" y="820" width="80" height="80" as="geometry" />
        </mxCell>
        <mxCell id="Wqq2mzDdI7eVIH88xmwz-37" value="País Creado" style="whiteSpace=wrap;html=1;aspect=fixed;fillColor=#D6DCE4;" vertex="1" parent="1">
          <mxGeometry x="690" y="720" width="80" height="80" as="geometry" />
        </mxCell>
        <mxCell id="Wqq2mzDdI7eVIH88xmwz-39" style="edgeStyle=orthogonalEdgeStyle;rounded=0;orthogonalLoop=1;jettySize=auto;html=1;curved=1;" edge="1" parent="1" source="Wqq2mzDdI7eVIH88xmwz-38" target="Wqq2mzDdI7eVIH88xmwz-28">
          <mxGeometry relative="1" as="geometry">
            <Array as="points">
              <mxPoint x="400" y="660" />
              <mxPoint x="400" y="750" />
            </Array>
          </mxGeometry>
        </mxCell>
        <mxCell id="Wqq2mzDdI7eVIH88xmwz-38" value="Jefe Centro de Informatica" style="whiteSpace=wrap;html=1;aspect=fixed;fillColor=#FCFCAA;" vertex="1" parent="1">
          <mxGeometry x="280" y="620" width="80" height="80" as="geometry" />
        </mxCell>
        <mxCell id="Wqq2mzDdI7eVIH88xmwz-42" style="edgeStyle=orthogonalEdgeStyle;rounded=0;orthogonalLoop=1;jettySize=auto;html=1;curved=1;" edge="1" parent="1" source="Wqq2mzDdI7eVIH88xmwz-40" target="Wqq2mzDdI7eVIH88xmwz-28">
          <mxGeometry relative="1" as="geometry">
            <Array as="points">
              <mxPoint x="410" y="960" />
              <mxPoint x="410" y="760" />
            </Array>
          </mxGeometry>
        </mxCell>
        <mxCell id="Wqq2mzDdI7eVIH88xmwz-40" value="Monitor Centros Informatica" style="whiteSpace=wrap;html=1;aspect=fixed;fillColor=#FCFCAA;" vertex="1" parent="1">
          <mxGeometry x="280" y="920" width="80" height="80" as="geometry" />
        </mxCell>
        <mxCell id="Wqq2mzDdI7eVIH88xmwz-43" style="edgeStyle=orthogonalEdgeStyle;rounded=0;orthogonalLoop=1;jettySize=auto;html=1;curved=1;" edge="1" parent="1" source="Wqq2mzDdI7eVIH88xmwz-41" target="Wqq2mzDdI7eVIH88xmwz-28">
          <mxGeometry relative="1" as="geometry">
            <Array as="points">
              <mxPoint x="410" y="1050" />
              <mxPoint x="410" y="760" />
            </Array>
          </mxGeometry>
        </mxCell>
        <mxCell id="Wqq2mzDdI7eVIH88xmwz-41" value="Estudiante" style="whiteSpace=wrap;html=1;aspect=fixed;fillColor=#FCFCAA;" vertex="1" parent="1">
          <mxGeometry x="280" y="1010" width="80" height="80" as="geometry" />
        </mxCell>
        <mxCell id="Wqq2mzDdI7eVIH88xmwz-60" style="edgeStyle=orthogonalEdgeStyle;rounded=0;orthogonalLoop=1;jettySize=auto;html=1;curved=1;" edge="1" parent="1" source="Wqq2mzDdI7eVIH88xmwz-46" target="Wqq2mzDdI7eVIH88xmwz-28">
          <mxGeometry relative="1" as="geometry">
            <Array as="points">
              <mxPoint x="1220" y="140" />
              <mxPoint x="330" y="140" />
              <mxPoint x="330" y="630" />
              <mxPoint x="480" y="630" />
            </Array>
          </mxGeometry>
        </mxCell>
        <mxCell id="Wqq2mzDdI7eVIH88xmwz-82" style="edgeStyle=orthogonalEdgeStyle;rounded=0;orthogonalLoop=1;jettySize=auto;html=1;curved=1;" edge="1" parent="1" source="Wqq2mzDdI7eVIH88xmwz-46" target="Wqq2mzDdI7eVIH88xmwz-71">
          <mxGeometry relative="1" as="geometry">
            <Array as="points">
              <mxPoint x="1250" y="690" />
              <mxPoint x="1080" y="690" />
            </Array>
          </mxGeometry>
        </mxCell>
        <mxCell id="Wqq2mzDdI7eVIH88xmwz-46" value="Países Modificado" style="whiteSpace=wrap;html=1;aspect=fixed;fillColor=#FFC000;" vertex="1" parent="1">
          <mxGeometry x="1180" y="210" width="80" height="80" as="geometry" />
        </mxCell>
        <mxCell id="Wqq2mzDdI7eVIH88xmwz-47" value="País" style="whiteSpace=wrap;html=1;aspect=fixed;fillColor=#FFFF00;" vertex="1" parent="1">
          <mxGeometry x="1100" y="210" width="80" height="80" as="geometry" />
        </mxCell>
        <mxCell id="Wqq2mzDdI7eVIH88xmwz-48" value="Modificar países" style="whiteSpace=wrap;html=1;aspect=fixed;fillColor=#BDD7EE;" vertex="1" parent="1">
          <mxGeometry x="1020" y="210" width="80" height="80" as="geometry" />
        </mxCell>
        <mxCell id="Wqq2mzDdI7eVIH88xmwz-49" value="Administrador General" style="whiteSpace=wrap;html=1;aspect=fixed;fillColor=#FCFCAA;" vertex="1" parent="1">
          <mxGeometry x="940" y="230" width="80" height="80" as="geometry" />
        </mxCell>
        <mxCell id="Wqq2mzDdI7eVIH88xmwz-50" value="Pol-País-004: No debe existir otro país, a excepcion de que sea el mismo país que se esta modificando&lt;span style=&quot;white-space: pre;&quot;&gt;&#x9;&lt;/span&gt;&amp;nbsp;" style="whiteSpace=wrap;html=1;aspect=fixed;fillColor=#CC99FF;" vertex="1" parent="1">
          <mxGeometry x="1095" y="290" width="120" height="120" as="geometry" />
        </mxCell>
        <mxCell id="Wqq2mzDdI7eVIH88xmwz-52" value="País Creado" style="whiteSpace=wrap;html=1;aspect=fixed;fillColor=#D6DCE4;" vertex="1" parent="1">
          <mxGeometry x="1260" y="210" width="80" height="80" as="geometry" />
        </mxCell>
        <mxCell id="Wqq2mzDdI7eVIH88xmwz-56" value="Pol-País-002: Los datos del nuevo país deben ser valido a nivel de tipo de dato, longitud, obligatoriedad, formato, rango" style="whiteSpace=wrap;html=1;aspect=fixed;fillColor=#CC99FF;" vertex="1" parent="1">
          <mxGeometry x="1095" y="410" width="120" height="120" as="geometry" />
        </mxCell>
        <mxCell id="Wqq2mzDdI7eVIH88xmwz-57" value="Pol-País-005: Debe existir el País que se esta modificando" style="whiteSpace=wrap;html=1;aspect=fixed;fillColor=#CC99FF;" vertex="1" parent="1">
          <mxGeometry x="1095" y="530" width="120" height="120" as="geometry" />
        </mxCell>
        <mxCell id="Wqq2mzDdI7eVIH88xmwz-70" value="Administrador General" style="whiteSpace=wrap;html=1;aspect=fixed;fillColor=#FCFCAA;" vertex="1" parent="1">
          <mxGeometry x="960" y="760" width="80" height="80" as="geometry" />
        </mxCell>
        <mxCell id="Wqq2mzDdI7eVIH88xmwz-71" value="Eliminar países" style="whiteSpace=wrap;html=1;aspect=fixed;fillColor=#BDD7EE;" vertex="1" parent="1">
          <mxGeometry x="1040" y="740" width="80" height="80" as="geometry" />
        </mxCell>
        <mxCell id="Wqq2mzDdI7eVIH88xmwz-72" value="País" style="whiteSpace=wrap;html=1;aspect=fixed;fillColor=#FFFF00;" vertex="1" parent="1">
          <mxGeometry x="1120" y="740" width="80" height="80" as="geometry" />
        </mxCell>
        <mxCell id="Wqq2mzDdI7eVIH88xmwz-84" style="edgeStyle=orthogonalEdgeStyle;rounded=0;orthogonalLoop=1;jettySize=auto;html=1;entryX=0.5;entryY=0;entryDx=0;entryDy=0;curved=1;" edge="1" parent="1" source="Wqq2mzDdI7eVIH88xmwz-73" target="Wqq2mzDdI7eVIH88xmwz-15">
          <mxGeometry relative="1" as="geometry">
            <Array as="points">
              <mxPoint x="1240" y="660" />
              <mxPoint x="830" y="660" />
              <mxPoint x="830" y="240" />
              <mxPoint x="490" y="240" />
            </Array>
          </mxGeometry>
        </mxCell>
        <mxCell id="Wqq2mzDdI7eVIH88xmwz-73" value="Países Eliminado" style="whiteSpace=wrap;html=1;aspect=fixed;fillColor=#FFC000;" vertex="1" parent="1">
          <mxGeometry x="1200" y="740" width="80" height="80" as="geometry" />
        </mxCell>
        <mxCell id="Wqq2mzDdI7eVIH88xmwz-74" value="País Creado" style="whiteSpace=wrap;html=1;aspect=fixed;fillColor=#D6DCE4;" vertex="1" parent="1">
          <mxGeometry x="1280" y="740" width="80" height="80" as="geometry" />
        </mxCell>
        <mxCell id="Wqq2mzDdI7eVIH88xmwz-75" value="Pol-País-006: Que el País exista y que no tenga departamentos asociados&amp;nbsp;" style="whiteSpace=wrap;html=1;aspect=fixed;fillColor=#CC99FF;" vertex="1" parent="1">
          <mxGeometry x="1115" y="820" width="120" height="120" as="geometry" />
        </mxCell>
        <mxCell id="Wqq2mzDdI7eVIH88xmwz-81" value="País Consultado" style="whiteSpace=wrap;html=1;aspect=fixed;fillColor=#D6DCE4;" vertex="1" parent="1">
          <mxGeometry x="1260" y="290" width="80" height="80" as="geometry" />
        </mxCell>
        <mxCell id="Wqq2mzDdI7eVIH88xmwz-87" value="Real&amp;nbsp; Model" style="whiteSpace=wrap;html=1;aspect=fixed;fillColor=#92D050;" vertex="1" parent="1">
          <mxGeometry x="530" y="200" width="80" height="80" as="geometry" />
        </mxCell>
        <mxCell id="Wqq2mzDdI7eVIH88xmwz-88" value="Hostpot" style="whiteSpace=wrap;html=1;aspect=fixed;fillColor=#FA90B1;" vertex="1" parent="1">
          <mxGeometry x="675" y="380" width="80" height="80" as="geometry" />
        </mxCell>
        <mxCell id="Wqq2mzDdI7eVIH88xmwz-89" value="Eventos Previos" style="whiteSpace=wrap;html=1;aspect=fixed;fillColor=#D6DCE4;" vertex="1" parent="1">
          <mxGeometry x="700" y="290" width="80" height="80" as="geometry" />
        </mxCell>
        <mxCell id="Wqq2mzDdI7eVIH88xmwz-91" value="" style="edgeStyle=orthogonalEdgeStyle;rounded=0;orthogonalLoop=1;jettySize=auto;html=1;curved=1;" edge="1" parent="1" source="Wqq2mzDdI7eVIH88xmwz-13" target="Wqq2mzDdI7eVIH88xmwz-90">
          <mxGeometry relative="1" as="geometry">
            <mxPoint x="650" y="280" as="sourcePoint" />
            <mxPoint x="1060" y="210" as="targetPoint" />
            <Array as="points" />
          </mxGeometry>
        </mxCell>
        <mxCell id="Wqq2mzDdI7eVIH88xmwz-90" value="External System" style="whiteSpace=wrap;html=1;aspect=fixed;fillColor=#FDD3FA;" vertex="1" parent="1">
          <mxGeometry x="610" y="200" width="80" height="80" as="geometry" />
        </mxCell>
      </root>
    </mxGraphModel>
  </diagram>
</mxfile>
